<?xml version="1.0" encoding="UTF-8"?>
<svg xmlns="http://www.w3.org/2000/svg" viewBox="0 0 500 372.61">
  <defs>
    <style>
      .cls-1 {
        fill: #f0f0f0;
      }

      .cls-2, .cls-3 {
        fill: #fff;
      }

      .cls-4 {
        opacity: .6;
      }

      .cls-4, .cls-5, .cls-6 {
        fill: #407bff;
      }

      .cls-7 {
        fill: #fafafa;
      }

      .cls-8 {
        fill: #f5f5f5;
      }

      .cls-3, .cls-9, .cls-6 {
        opacity: .3;
      }

      .cls-10 {
        opacity: .2;
      }

      .cls-11 {
        fill: #e0e0e0;
      }

      .cls-12 {
        fill: #e6e6e6;
      }

      .cls-13 {
        opacity: .4;
      }

      .cls-14 {
        fill: #ebebeb;
      }

      .cls-15 {
        fill: #ff8b7b;
      }

      .cls-16 {
        fill: #ff5652;
      }

      .cls-17 {
        fill: #263238;
      }
    </style>
  </defs>
  <g id="Background_Complete" data-name="Background Complete">
    <g>
      <rect class="cls-14" y="327.45" width="500" height=".25"/>
      <rect class="cls-14" x="290.21" y="334.26" width="25.46" height=".25"/>
      <rect class="cls-14" x="395.11" y="339.67" width="60.33" height=".25"/>
      <rect class="cls-14" x="222.46" y="334.38" width="62.33" height=".25"/>
      <rect class="cls-14" x="169" y="341.86" width="13.04" height=".25"/>
      <rect class="cls-14" x="194.71" y="341.86" width="59.38" height=".25"/>
      <rect class="cls-14" x="52.46" y="337.64" width="38.45" height=".25"/>
      <path class="cls-14" d="m237.01,282.85H43.91c-3.15,0-5.71-2.56-5.71-5.71V5.71c0-3.15,2.56-5.71,5.71-5.71h193.1c3.15,0,5.71,2.56,5.71,5.71v271.43c0,3.15-2.56,5.71-5.71,5.71ZM43.91.25c-3.01,0-5.46,2.45-5.46,5.46v271.43c0,3.01,2.45,5.46,5.46,5.46h193.1c3.01,0,5.46-2.45,5.46-5.46V5.71c0-3.01-2.45-5.46-5.46-5.46H43.91Z"/>
      <path class="cls-14" d="m453.31,282.85h-193.1c-3.15,0-5.71-2.56-5.71-5.71V5.71c0-3.15,2.56-5.71,5.71-5.71h193.1c3.15,0,5.71,2.56,5.71,5.71v271.43c0,3.15-2.56,5.71-5.71,5.71ZM260.21.25c-3.01,0-5.46,2.45-5.46,5.46v271.43c0,3.01,2.45,5.46,5.46,5.46h193.1c3.01,0,5.46-2.45,5.46-5.46V5.71c0-3.01-2.45-5.46-5.46-5.46h-193.1Z"/>
    </g>
    <g>
      <g>
        <g>
          <polygon class="cls-12" points="195.96 240.71 129.56 240.71 125.53 194.21 191.93 194.21 195.96 240.71"/>
          <polygon class="cls-1" points="199.4 240.71 133 240.71 128.97 194.21 195.37 194.21 199.4 240.71"/>
          <polygon class="cls-2" points="142.08 230.73 139.86 204.2 186.29 204.2 188.51 230.73 142.08 230.73"/>
        </g>
        <g>
          <rect class="cls-12" x="203.1" y="240.71" width="7.79" height="86.73"/>
          <rect class="cls-1" x="207.94" y="240.71" width="5.41" height="86.73"/>
          <rect class="cls-1" x="137.94" y="240.71" width="75.41" height="9.57" transform="translate(351.29 491) rotate(180)"/>
          <rect class="cls-12" x="132.81" y="250.29" width="7.79" height="77.16"/>
          <rect class="cls-1" x="137.65" y="250.29" width="5.41" height="77.16"/>
          <rect class="cls-12" x="77.36" y="250.29" width="7.79" height="77.16"/>
          <rect class="cls-1" x="82.2" y="250.29" width="5.41" height="77.16"/>
          <rect class="cls-12" x="153.8" y="250.29" width="7.79" height="77.16"/>
          <rect class="cls-1" x="158.63" y="250.29" width="5.41" height="77.16"/>
          <rect class="cls-12" x="77.36" y="240.71" width="60.58" height="9.57"/>
        </g>
      </g>
      <g>
        <rect class="cls-11" x="129.51" y="24.46" width="234.33" height="130.46"/>
        <rect class="cls-8" x="130.69" y="24.46" width="246.02" height="130.46"/>
        <rect class="cls-2" x="192.49" y="-29.3" width="122.42" height="237.98" transform="translate(343.39 -164.01) rotate(90)"/>
        <polygon class="cls-8" points="231.07 150.9 276 28.48 201.85 28.48 156.92 150.9 231.07 150.9"/>
        <polygon class="cls-8" points="302.44 150.9 347.37 28.48 291.43 28.48 246.5 150.9 302.44 150.9"/>
      </g>
      <g>
        <rect class="cls-12" x="418.19" y="202.85" width="19.92" height="124.6"/>
        <polygon class="cls-7" points="432.87 327.45 438.11 327.45 438.11 317.85 427.38 317.85 432.87 327.45"/>
        <rect class="cls-12" x="234.53" y="202.85" width="19.92" height="124.6"/>
        <rect class="cls-7" x="249.88" y="202.85" width="188.23" height="122.01"/>
        <path class="cls-12" d="m434.55,242.22h-181.1v-34.46h181.1v34.46Zm-180.1-1h179.1v-32.46h-179.1v32.46Z"/>
        <path class="cls-12" d="m402.67,224.49h-113.82c-5.29,0-10.38-4.26-13.96-11.7l-.35-.72h142.43l-.35.72c-3.58,7.43-8.67,11.7-13.96,11.7Zm-126.53-11.41c3.38,6.63,7.98,10.41,12.7,10.41h113.82c4.72,0,9.32-3.78,12.71-10.41h-139.23Z"/>
        <polygon class="cls-7" points="255.12 327.45 249.88 327.45 249.88 317.85 260.61 317.85 255.12 327.45"/>
        <path class="cls-12" d="m434.55,281.08h-181.1v-34.46h181.1v34.46Zm-180.1-1h179.1v-32.46h-179.1v32.46Z"/>
        <path class="cls-12" d="m402.67,263.35h-113.82c-5.29,0-10.38-4.26-13.96-11.7l-.35-.72h142.43l-.35.72c-3.58,7.43-8.67,11.7-13.96,11.7Zm-126.53-11.41c3.38,6.63,7.98,10.41,12.7,10.41h113.82c4.72,0,9.32-3.78,12.71-10.41h-139.23Z"/>
        <path class="cls-12" d="m434.55,319.95h-181.1v-34.46h181.1v34.46Zm-180.1-1h179.1v-32.46h-179.1v32.46Z"/>
        <path class="cls-12" d="m402.67,302.22h-113.82c-5.29,0-10.38-4.26-13.96-11.7l-.35-.72h142.43l-.35.72c-3.58,7.43-8.67,11.7-13.96,11.7Zm-126.53-11.41c3.38,6.63,7.98,10.41,12.7,10.41h113.82c4.72,0,9.32-3.78,12.71-10.41h-139.23Z"/>
      </g>
      <g>
        <polygon class="cls-12" points="120.98 219.33 120.98 221.75 119.43 221.75 118.16 240.71 99.32 240.71 98.05 221.75 96.5 221.75 96.5 219.33 120.98 219.33"/>
        <path class="cls-12" d="m114.78,172.26c-1.55-11.3-16.79-14.52-36.14-14.94-18.41-.39-24.31-6.91-24.31-6.91,0,0,.06,26.38,26.59,35.93,25.19,9.07,35.41-2.77,33.86-14.08Z"/>
        <path class="cls-12" d="m105.38,197.87c.32-4.65,7.74-13.19,25.59-9.3,12.9,2.81,17.7-3.88,17.7-3.88,0,0-1.19,18.88-20.6,24.56-18.43,5.39-23.26-3.2-22.69-11.37Z"/>
        <path class="cls-12" d="m109.45,226.45c.2,0,.39-.08.53-.24,1.29-1.53.24-5.19-1.23-10.26-1.88-6.5-4.22-14.6-2.24-20.47,1.12-3.32,2.5-6.24,3.84-9.07,2.8-5.92,5.22-11.04,3.2-16.38-.13-.36-.53-.54-.89-.4-.36.13-.53.53-.4.89,1.81,4.8-.38,9.43-3.16,15.31-1.29,2.73-2.76,5.83-3.9,9.22-2.12,6.29.29,14.61,2.22,21.3,1.14,3.94,2.32,8.02,1.5,8.99-.25.29-.21.72.08.97.13.11.29.16.44.16Z"/>
      </g>
    </g>
  </g>
  <g id="Shadow">
    <ellipse id="_Path_" data-name="&amp;lt;Path&amp;gt;" class="cls-8" cx="250" cy="361.29" rx="193.89" ry="11.32"/>
  </g>
  <g id="Login">
    <g>
      <polygon class="cls-5" points="249.96 306.1 107.96 306.1 100.19 77.73 242.19 77.73 249.96 306.1"/>
      <g>
        <polygon class="cls-5" points="257.05 299.01 115.05 299.01 107.27 70.64 249.27 70.64 257.05 299.01"/>
        <polygon class="cls-3" points="257.05 299.01 115.05 299.01 107.27 70.64 249.27 70.64 257.05 299.01"/>
      </g>
      <g>
        <ellipse class="cls-5" cx="180.5" cy="136.14" rx="39.27" ry="40.63" transform="translate(-43.12 169.41) rotate(-45.49)"/>
        <path class="cls-2" d="m213.47,136.14c.19,5.69-1.07,11.04-3.45,15.7-5.21,10.27-15.86,17.26-28.39,17.26s-23.66-6.99-29.57-17.26c-2.7-4.66-4.32-10.01-4.52-15.7-.62-18.21,13.63-32.97,31.84-32.97s33.47,14.76,34.09,32.97Z"/>
        <path class="cls-4" d="m210.02,151.84c-5.21,10.27-15.86,17.26-28.39,17.26s-23.66-6.99-29.57-17.26c8.11-5.54,17.96-8.78,28.68-8.78s20.79,3.24,29.28,8.78Z"/>
        <ellipse class="cls-4" cx="180.12" cy="124.86" rx="14.44" ry="14.94" transform="translate(-35.19 165.76) rotate(-45.49)"/>
      </g>
      <polygon class="cls-2" points="228.52 216.31 137.94 216.31 137.33 198.31 227.91 198.31 228.52 216.31"/>
      <polygon class="cls-2" points="229.62 248.48 139.03 248.48 138.42 230.48 229.01 230.48 229.62 248.48"/>
      <path class="cls-5" d="m194.66,232.96l-21.83,2.97c-.9.12-1.49.94-1.32,1.81l2.87,14.63c.17.87,1.04,1.49,1.94,1.36l21.83-2.97c.9-.12,1.49-.93,1.32-1.81l-2.87-14.63c-.17-.87-1.04-1.49-1.94-1.36Zm-6.27,14.82l-3.95.54-.4-4.72c-.84-.37-1.45-1.12-1.62-2-.28-1.43.69-2.76,2.15-2.95,1.46-.2,2.88.8,3.16,2.23.17.88-.12,1.75-.78,2.32l1.43,4.58Z"/>
      <path class="cls-5" d="m192.5,232.17h0c-.8.11-1.57-.43-1.72-1.21l-.28-1.43c-.77-3.94-4.54-6.92-8.62-6.56-4.36.38-7.28,4.23-6.47,8.39l.32,1.64c.15.78-.37,1.49-1.17,1.6h0c-.8.11-1.57-.43-1.72-1.21l-.27-1.4c-1.08-5.49,2.38-10.77,7.97-11.75,5.88-1.02,11.68,2.94,12.8,8.66l.32,1.64c.15.78-.37,1.49-1.17,1.6Z"/>
      <polygon class="cls-5" points="214.67 273.69 155.7 273.69 155.3 261.97 214.27 261.97 214.67 273.69"/>
      <path class="cls-17" d="m186.22,207.31c.06,1.82-1.36,3.29-3.18,3.29s-3.34-1.47-3.4-3.29c-.06-1.82,1.36-3.29,3.18-3.29s3.34,1.47,3.4,3.29Z"/>
      <path class="cls-17" d="m172.04,207.31c.06,1.82-1.36,3.29-3.18,3.29s-3.34-1.47-3.4-3.29c-.06-1.82,1.36-3.29,3.18-3.29s3.34,1.47,3.4,3.29Z"/>
      <path class="cls-17" d="m157.87,207.31c.06,1.82-1.36,3.29-3.18,3.29s-3.34-1.47-3.4-3.29c-.06-1.82,1.36-3.29,3.18-3.29s3.34,1.47,3.4,3.29Z"/>
      <path class="cls-17" d="m200.39,207.31c.06,1.82-1.36,3.29-3.18,3.29s-3.34-1.47-3.4-3.29c-.06-1.82,1.36-3.29,3.18-3.29s3.34,1.47,3.4,3.29Z"/>
      <path class="cls-17" d="m214.56,207.31c.06,1.82-1.36,3.29-3.18,3.29s-3.34-1.47-3.4-3.29c-.06-1.82,1.36-3.29,3.18-3.29s3.34,1.47,3.4,3.29Z"/>
    </g>
  </g>
  <g id="Character">
    <g>
      <path class="cls-15" d="m333.91,119.33c1.33,2.13,2.44,4.18,3.58,6.31,1.14,2.11,2.17,4.27,3.18,6.46,1.99,4.38,3.77,8.9,5.1,13.73.18.59.31,1.22.46,1.84l.22.93.11.46.13.76c.29,2.03.03,3.69-.31,5.15-.72,2.91-1.87,5.24-3.11,7.46-2.53,4.39-5.48,8.13-8.89,11.67l-4.21-3.19c2.08-3.94,4.13-8.07,5.64-12.04.73-1.97,1.35-3.98,1.53-5.63.09-.81.03-1.51-.08-1.77l-.4-1.22c-.16-.5-.31-1-.51-1.51-1.44-4.04-3.27-8.09-5.27-12.08-1.97-3.98-4.15-8.03-6.29-11.82l9.13-5.51Z"/>
      <path class="cls-15" d="m331.24,169.47l-4.59,2.44,5.28,6.18s3.3-2.23,3.44-5.63l-4.13-2.98Z"/>
      <polygon class="cls-15" points="320.47 175.72 326.12 180.21 331.92 178.09 326.64 171.91 320.47 175.72"/>
      <path class="cls-17" d="m301.15,86.61c-.11.56-.5.95-.86.87-.36-.07-.57-.58-.45-1.14.11-.56.5-.95.86-.87.36.07.57.58.45,1.14Z"/>
      <path class="cls-16" d="m300.7,87.57s-1.92,2.95-3.62,4.22c.8,1.12,2.55,1.04,2.55,1.04l1.07-5.25Z"/>
      <path class="cls-15" d="m298.9,107.19l.04-6.55,8.68,1.05s-.15,5.64-5,7.29l-3.73-1.79Z"/>
      <polygon class="cls-15" points="301.4 95.91 307.51 97.67 307.62 101.68 298.94 100.63 301.4 95.91"/>
      <path class="cls-10" d="m307.51,97.67l-6.11-1.76-1.19,2.28c.15,3.87,2.51,7.05,5.64,8.48,1.7-2.23,1.77-4.99,1.77-4.99l-.11-4.01Z"/>
      <path class="cls-17" d="m303.81,83.94c.08,0,.16-.03.23-.09.14-.12.14-.34.02-.47-1.25-1.35-2.77-1.11-2.83-1.1-.18.03-.3.2-.27.38.03.18.21.3.38.27h0c.05,0,1.24-.18,2.24.9.07.07.15.11.24.11Z"/>
      <path class="cls-15" d="m316.59,96.73c-1.01,5.15-1.62,12.28,1.98,15.71,0,0-1.41,5.22-10.97,5.22-10.51,0-5.06-4.58-5.06-4.58,4.37-1.36,4.33-6.33,3.33-10.33l10.71-6.02Z"/>
      <path class="cls-5" d="m320.54,115.88c.94-1.33.9-5.52-.1-6.25-1.61-1.19-8.52-1.47-17.82.67,1,4.06-1.14,6.18-1.14,6.18l19.06-.6Z"/>
      <path class="cls-5" d="m351.8,353.28c-.71.15-1.41.19-1.75-.1-.14-.12-.29-.35-.16-.77.07-.22.21-.39.43-.49.95-.45,3.13.44,3.23.47.06.02.1.08.1.15,0,.07-.03.13-.09.15-.33.16-1.04.43-1.75.58Zm-1.14-1.12c-.07.02-.14.04-.2.06-.13.06-.21.16-.25.28-.09.3.02.39.06.43.38.32,1.78.03,2.77-.37-.67-.24-1.76-.54-2.38-.4Z"/>
      <path class="cls-5" d="m353.51,352.72s-.05,0-.08,0c-.8-.23-2.5-1.44-2.52-2.24,0-.14.05-.41.43-.54.25-.09.49-.07.74.06.94.48,1.53,2.43,1.56,2.51.02.06,0,.12-.04.17-.02.02-.05.04-.08.05Zm-1.99-2.49s-.05.01-.07.02c-.21.07-.2.17-.2.22.01.47,1.13,1.42,1.96,1.8-.21-.56-.68-1.67-1.28-1.98-.14-.07-.27-.09-.4-.06Z"/>
      <path class="cls-5" d="m299.86,354.46c-.9,0-1.77-.12-2.07-.53-.1-.14-.18-.38.01-.73.11-.19.29-.32.53-.39,1.17-.32,3.63,1.08,3.73,1.14.06.03.09.1.08.17s-.06.12-.13.14c-.45.09-1.32.2-2.16.2Zm-1.12-1.36c-.12,0-.23.01-.32.04-.15.04-.26.12-.33.23-.12.21-.07.31-.03.37.33.45,2.11.47,3.41.28-.65-.33-1.91-.92-2.73-.92Z"/>
      <path class="cls-5" d="m301.99,354.27s-.05,0-.07-.01c-.85-.38-2.53-1.9-2.4-2.7.03-.19.16-.42.62-.47.34-.03.65.06.92.29.89.73,1.08,2.63,1.09,2.71,0,.06-.02.12-.07.15-.03.02-.06.03-.1.03Zm-1.72-2.85s-.07,0-.1,0c-.3.03-.32.15-.32.19-.08.48,1.07,1.67,1.93,2.19-.09-.55-.34-1.69-.93-2.17-.18-.15-.37-.22-.58-.22Z"/>
      <polygon class="cls-15" points="309.72 354.1 302.69 354.1 301.99 337.81 309.02 337.81 309.72 354.1"/>
      <polygon class="cls-15" points="361.35 350.85 354.47 352.34 347.57 337.16 354.45 335.68 361.35 350.85"/>
      <path class="cls-17" d="m353.81,351.65l7.72-1.67c.28-.06.57.08.69.34l2.68,5.82c.28.6-.09,1.31-.74,1.44-2.71.54-4.05.66-7.45,1.4-2.09.45-6.81,1.6-9.69,2.23-2.82.61-3.88-2.15-2.75-2.66,5.05-2.31,7.15-4.34,8.52-6.23.25-.34.61-.58,1.02-.66Z"/>
      <path class="cls-17" d="m302.74,353.29h7.68c.29,0,.54.2.6.48l1.39,6.25c.14.65-.35,1.26-1.01,1.25-2.77-.05-6.77-.21-10.26-.21-4.07,0-7.59.22-12.36.22-2.89,0-3.69-2.92-2.48-3.18,5.5-1.2,10-1.33,14.75-4.26.52-.32,1.09-.55,1.69-.55Z"/>
      <g>
        <path class="cls-5" d="m331.17,114.03c6.59,1.51,12.03,18.34,12.03,18.34l-13.24,10.09s-4.86-4.58-7.02-13c-2.27-8.82,1.49-16.98,8.23-15.43Z"/>
        <path class="cls-13" d="m331.17,114.03c6.59,1.51,12.03,18.34,12.03,18.34l-13.24,10.09s-4.86-4.58-7.02-13c-2.27-8.82,1.49-16.98,8.23-15.43Z"/>
      </g>
      <path class="cls-15" d="m296.5,134.11c-1.65,1.78-3.29,3.35-4.98,4.98-.84.81-1.71,1.6-2.59,2.38l-1.33,1.16-.33.29c-.16.14-.36.3-.57.47-.44.33-.92.7-1.93,1.14-.53.21-1.22.48-2.43.5-.57,0-1.35-.09-2.1-.37-.76-.28-1.5-.77-2-1.27-1.05-1.05-1.36-1.97-1.57-2.59-.19-.64-.25-1.09-.29-1.49-.06-.78-.02-1.3.02-1.79.05-.48.11-.9.19-1.29.29-1.54.71-2.79,1.16-4.03.46-1.23.96-2.42,1.55-3.61.63-1.27,1.25-2.2,1.86-3.26,2.47-4.13,5.37-7.9,8.45-11.46,3.15-3.53,6.45-6.76,10.25-9.72l3.68,3.79c-2.59,3.46-5.13,7.17-7.48,10.82-2.35,3.68-4.52,7.43-6.4,11.25-.43.94-.96,1.97-1.26,2.76-.35.86-.67,1.79-.94,2.7-.26.9-.47,1.84-.57,2.53-.02.17-.03.31-.03.4,0,.08.02.12,0-.09-.01-.12-.02-.29-.13-.65-.12-.35-.31-1.01-1.15-1.86-.41-.4-1.02-.82-1.65-1.04-.61-.24-1.25-.31-1.68-.31-.93.02-1.34.21-1.61.31-.49.21-.5.27-.5.25l.38-.35,1.2-1.1,2.39-2.24c1.58-1.49,3.17-3.08,4.68-4.56l7.7,7.38Z"/>
      <path class="cls-10" d="m325.52,126.41c3.58,3.54,4.75,10,5.03,15.61l-.58.45s-4.86-4.59-7.03-13c-.13-.53-.25-1.05-.34-1.57l2.93-1.48Z"/>
      <g>
        <path class="cls-5" d="m289.51,121.08c-1.44,7.6-2.34,23.2,1.84,54.11h37.62c.26-5.78-3.37-33.95,2.2-61.16,0,0-6.45-1.29-12.59-1.59-4.81-.23-11.77-.38-15.99,0-1.76.16-3.5.42-5.04.69-4.07.72-7.27,3.89-8.03,7.95Z"/>
        <path class="cls-13" d="m289.51,121.08c-1.44,7.6-2.34,23.2,1.84,54.11h37.62c.26-5.78-3.37-33.95,2.2-61.16,0,0-6.45-1.29-12.59-1.59-4.81-.23-11.77-.38-15.99,0-1.76.16-3.5.42-5.04.69-4.07.72-7.27,3.89-8.03,7.95Z"/>
      </g>
      <path class="cls-10" d="m295.27,132.31l-6.8-1.63c-.21,4.12-.23,9.22.08,15.53,3.13-3.56,7.12-9.11,6.72-13.9Z"/>
      <g>
        <polygon class="cls-10" points="301.99 337.82 302.35 346.22 309.39 346.22 309.03 337.82 301.99 337.82"/>
        <polygon class="cls-10" points="354.45 335.68 347.57 337.17 351.13 344.99 358.01 343.5 354.45 335.68"/>
      </g>
      <path class="cls-15" d="m319.93,89.2c-1.81,6.74-2.52,10.78-6.68,13.58-6.26,4.22-14.05-.62-14.3-7.77-.22-6.43,2.77-16.38,10.01-17.74,7.13-1.34,12.78,5.18,10.97,11.92Z"/>
      <path class="cls-17" d="m304.15,89.46c-.33-.9-1.89-7.87-.43-9.68,1.46-1.81,18.11-.51,20.57,1.91,4.08,4.02,1.25,7.61-3.22,12.23-3.36,3.48-3.49,7.4-5.19,7.98-2.97,1.01-7.58.06-8.51-3.11-.92-3.17-3.23-9.33-3.23-9.33Z"/>
      <path class="cls-17" d="m322.27,73.77c-5.89-2.51-16.92.27-22.87-1.17-.21,3.09,1.65,8.03,7.61,9.36,0,0,8.46,1.65,15,1.38,6.54-.27,5.27-7.45.27-9.57Z"/>
      <path class="cls-17" d="m323.19,81.91s3.64.41,6.22-1.19c1.1,2.66-4.94,3.39-6.22,1.19Z"/>
      <path class="cls-15" d="m307.35,89.74c-.11,1.83-.96,3.54-1.98,4.67-1.53,1.69-3.13.64-3.41-1.42-.24-1.85.26-4.96,2.13-5.89,1.85-.92,3.37.56,3.25,2.65Z"/>
      <path class="cls-5" d="m304.69,175.19s7.98,53.75,12.36,73.89c4.8,22.05,30.53,95.01,30.53,95.01l12.59-2.73s-17.99-59.46-22.02-90.29c-3.09-23.68-9.19-75.89-9.19-75.89h-24.28Z"/>
      <path class="cls-17" d="m344.57,339.89c-.05.01,2.35,4.55,2.35,4.55l14.17-3.07-1.19-4.26-15.32,2.77Z"/>
      <path class="cls-9" d="m309.74,194.34c9.23,1.81,8.25,36.23,7.14,53.93-2.66-12.51-6.56-36.59-9.22-53.68.61-.31,1.3-.4,2.08-.25Z"/>
      <path class="cls-5" d="m291.34,175.19s-.97,52.59-.2,74.04c.8,22.31,8.59,95.36,8.59,95.36h11.92s.44-71.75.97-93.66c.58-23.89,3.46-75.74,3.46-75.74h-24.73Z"/>
      <path class="cls-17" d="m297.44,339.84c-.05,0,.67,4.95.67,4.95h14.49l.39-4.41-15.56-.53Z"/>
      <g>
        <path class="cls-5" d="m304.25,123.39c3.37,9.09-16.44,19.8-16.44,19.8l-8.58-11.03s5.72-11.39,12.75-16.52c8.68-6.34,9.71.84,12.27,7.76Z"/>
        <path class="cls-13" d="m304.25,123.39c3.37,9.09-16.44,19.8-16.44,19.8l-8.58-11.03s5.72-11.39,12.75-16.52c8.68-6.34,9.71.84,12.27,7.76Z"/>
      </g>
    </g>
  </g>
  <g id="Thinking">
    <g>
      <ellipse class="cls-5" cx="381.87" cy="31.38" rx="36.09" ry="23"/>
      <path class="cls-2" d="m368.85,42.96c-2,0-3.96-.6-5.66-1.76-2.28-1.55-3.79-3.91-4.27-6.63-.9-5.21,2.56-10.39,7.71-11.57h0c4.24-.96,8.55.85,10.82,4.52l23.17-4.78c1.88-.39,3.78.73,4.25,2.5.25.94.1,1.91-.41,2.73-.51.82-1.31,1.38-2.26,1.58l-.61.13c-.18.04-.33.15-.42.31-.09.16-.1.35-.04.52l.41,1.06c.28.72.02,1.53-.62,1.92-.49.31-.83.84-.9,1.41-.08.71-.55,1.25-1.2,1.39l-.48.1c-.65.13-1.3-.18-1.65-.8-.42-.72-1.25-1.09-2.07-.92-.82.17-1.44.84-1.54,1.67-.09.71-.56,1.25-1.21,1.39l-.47.1c-.64.13-1.3-.18-1.65-.8-.29-.5-.81-.86-1.39-.94-.74-.11-1.3-.75-1.33-1.52l-.05-1.14c0-.18-.09-.35-.24-.46-.14-.11-.32-.16-.51-.12l-7.38,1.52c-.63,4.18-3.78,7.53-7.95,8.39-.69.14-1.38.21-2.07.21Zm-2-18.98c-4.64,1.05-7.75,5.73-6.94,10.42.42,2.45,1.79,4.58,3.84,5.98s4.53,1.9,6.96,1.39c3.87-.8,6.76-3.97,7.21-7.89l.04-.36,8.09-1.67c.47-.1.95.02,1.33.31.38.29.6.73.62,1.21l.05,1.14c.01.29.22.53.48.57.89.13,1.66.65,2.11,1.43.11.19.32.37.59.32l.47-.1c.26-.05.39-.31.41-.53.15-1.26,1.09-2.27,2.33-2.53,1.24-.26,2.5.31,3.13,1.4.11.19.32.38.59.32l.48-.1c.26-.05.39-.31.41-.52.1-.89.6-1.67,1.36-2.15.22-.14.31-.45.21-.71l-.41-1.06c-.17-.44-.14-.94.09-1.36.23-.42.63-.71,1.09-.81l.61-.13c.68-.14,1.25-.54,1.61-1.12.36-.59.47-1.28.29-1.95-.33-1.26-1.71-2.05-3.08-1.77l-23.87,4.93-.18-.31c-2-3.49-5.98-5.25-9.92-4.35h0Zm2.01,15.29c-1.24,0-2.45-.36-3.51-1.06-1.43-.94-2.41-2.38-2.75-4.06-.35-1.68-.02-3.39.92-4.82.94-1.43,2.38-2.4,4.06-2.75,1.68-.35,3.39-.02,4.82.92,1.43.94,2.4,2.38,2.75,4.06.35,1.68.02,3.38-.92,4.81-.94,1.43-2.38,2.41-4.06,2.75h0c-.43.09-.87.13-1.31.13Zm.03-11.81c-.37,0-.74.04-1.11.11-1.41.29-2.63,1.12-3.42,2.32-.79,1.21-1.07,2.65-.78,4.06.29,1.41,1.12,2.63,2.32,3.42,1.21.79,2.65,1.07,4.06.78h0c1.42-.29,2.63-1.12,3.42-2.32.79-1.21,1.07-2.65.78-4.06-.29-1.42-1.12-2.63-2.32-3.43-.89-.59-1.91-.89-2.95-.89Z"/>
      <ellipse class="cls-4" cx="352.5" cy="60.31" rx="11.86" ry="7.56"/>
      <ellipse class="cls-6" cx="333.63" cy="67.86" rx="4.87" ry="3.1"/>
    </g>
  </g>
</svg>