<?xml version="1.0" encoding="UTF-8"?>
<svg id="_Слой_2" data-name="Слой 2" xmlns="http://www.w3.org/2000/svg" xmlns:xlink="http://www.w3.org/1999/xlink" viewBox="0 0 144.82 204.83">
  <defs>
    <style>
      .cls-1 {
        fill: #f96767;
      }

      .cls-2 {
        fill: #fff;
      }

      .cls-3 {
        fill: #2ccddd;
      }

      .cls-4 {
        fill: #3c1d7f;
      }

      .cls-5 {
        clip-path: url(#clippath);
      }

      .cls-6 {
        fill: none;
      }

      .cls-7 {
        fill: #5a37bc;
      }
    </style>
    <clipPath id="clippath">
      <rect class="cls-6" width="144.82" height="204.83"/>
    </clipPath>
  </defs>
  <g id="OBJECTS">
    <g class="cls-5">
      <rect class="cls-4" width="144.82" height="204.83"/>
      <path class="cls-3" d="m151.21,161.91v-96.9c-.32-.8-1.33-5.47-1.65-6.28-1.18,12.04-10.4,25.73-19.91,32.86-13.65,10.24-30.67,2.57-46.07,4.01-13.53,1.27-25.91,9.98-32.05,22.05-8.11,15.96-5.37,34.95-12.65,51.22-7.75,17.31-29.07,33.43-48.17,22.23l2.72,31.29c.16-.32-1.12.71-.96.39h157.9c-.44-.54-.32-1.74-.12-2.41l.96-58.48Z"/>
      <path class="cls-7" d="m156.81,33.31c0,.23-11.66,9.01-13.04,10.73-3.74,4.69-5.86,10.5-8.15,15.98-8.75,20.96-29.59,28.31-49.63,16.14-14.43-8.76-23.95-23.95-39.89-30.35-19.52-7.83-56.8-3.51-63.59,22.37.34-1.28.13-7,.46-8.28V-3.75c.33-.31.15-1.46.48-1.78h173.21c.29.81-.8,2.55-.51,3.37,0,0,.65,35.47.65,35.47Z"/>
      <path class="cls-2" d="m-6.29,13.59c0-.83,7.36-1.95,8.19-2.15,4.17-.99,8.38-1.79,12.61-2.39,17.56-2.51,36.92-2.63,52.74,6.53,8.72,5.05,20.03,10.38,29.9,7.41,9.63-2.9,17.8-9.17,27.33-12.34,7.71-2.56,16.09-2.14,24.15-1.09,0,0,1.07-2.05,1.07-2.05-8.03-2.21-16.68-1.7-24.65.52-7.66,2.13-14.59,6.17-22.12,8.41-7.01,2.08-14.64,3.09-21.69.72-8.72-2.93-16.64-7.52-25.6-9.86C36.77,2.39,16.93,4.78-1.88,8.87c-3.34.73-4.41,1.14-4.41,4.72Z"/>
      <path class="cls-7" d="m175.55,218.73s-.23-92.79-.23-92.79c-10.98,8.72-25.99,2.32-36.57-3.92-12.24-7.21-22.65-13.27-37.59-11.53-22.16,2.57-38.26,20.63-45.13,40.92-4.85,14.32-7.35,30.06-15.4,43.07-9.47,15.31-28.6,26.77-46.84,20.14-4.89-1.78-9.29-5.23-11.6-9.9,0,.16-.99.27-.99.43v19.78l194.34-6.18Z"/>
      <path class="cls-2" d="m39.61,208.96c.6.03,1.19-.04,1.77-.26,1.4-.53,2.37-1.8,3.24-3.03,5.28-7.52,9.5-15.78,12.51-24.46,3.13-9.02,5.01-18.42,8.57-27.32,4.28-10.69,11.36-19.62,20.86-26.18,7.46-5.15,16.14-7.55,25.2-6.58,5.73.61,11.26,2.31,16.73,4.02,4.21,1.31,8.46,2.46,12.73,3.56,1.05.27,9.37,1.81,9.26,3.21.03-.47-.42-.82-.84-1.04-.74-.4-1.1-1.17-1.76-1.6-1.04-.69-2.65-.97-3.83-1.39-2.62-.93-5.23-1.86-7.85-2.78-11.28-4-22.54-9.51-34.8-7.19-13.04,2.47-24.02,11.56-31.63,22.08-2.45,3.39-4.61,7.01-6.41,10.79-4.44,9.32-6.31,19.57-9.79,29.24-3.74,10.39-10.72,19.53-19.13,26.62,1.51,1.13,3.22,2.22,5.16,2.34Z"/>
      <path class="cls-4" d="m163.84,230.63c.22,1.1-.13,2.3-.89,3.13,1.62-12.07,2.27-24.28,1.94-36.45-.19-7.18.51-12.59-.02-19.76-.22-2.94-7.83-4.36-10-5.29-5.49-2.35-10.7-5.3-16.24-7.58-10.82-4.45-22.44-7.65-34.24-6.61-14.39,1.27-27.71,9.14-36.77,20.24-8.58,10.52-13.23,23.41-20.51,34.75-8.26,12.86-20.51,21.52-35.57,24.68,54,.74,105.23,1.54,159.24.98-2.53.45-5.21-6.19-6.95-8.09Z"/>
      <path class="cls-1" d="m163.03,251.6c.22,1.1-.13,2.3-.89,3.13,1.62-12.07,2.27-24.28,1.94-36.45-.19-7.18.51-12.59-.02-19.76-.22-2.94-7.83-4.36-10-5.29-5.49-2.35-10.7-5.3-16.24-7.58-10.82-4.45-22.44-7.65-34.24-6.61-14.39,1.27-27.71,9.14-36.77,20.24-8.58,10.52-13.23,23.41-20.51,34.75-8.26,12.86-20.51,21.52-35.57,24.68,54,.74,105.23,1.54,159.24.98-2.53.45-5.21-6.19-6.95-8.09Z"/>
      <path class="cls-4" d="m152.4,17.59c-8.88-.82-18.98-.34-24.74,7.49-4.31,5.87-3.93,13.54-3.2,20.43,1.13,10.55-3.63,22.91-15.42,25.09-8.56,1.58-16.22-3.25-23.1-8.45-9.96-7.53-17.28-17.65-28.17-24.26-18.28-11.09-42.04-12.32-61.31-2.96-1.55.75-3.06,1.57-4.54,2.44,0-.34-.63-.33-.63-.67,0-3.85,0-7.69.02-11.54.02-2.31,6.34-5.41,8.01-5.71,20.7-3.71,46.68-5.75,67.68,5.57,8.27,4.46,13.48,11.01,20.21,17.23,4.41,4.08,12.7,6.47,17.45,1.62,2.68-2.74,3.15-6.87,4.27-10.54,5.46-17.91,26.09-23.19,42.69-20.31-.32.94.25,3.74.77,4.58Z"/>
      <path class="cls-4" d="m152.56,133.35c-5.59,2.31-11.63-.13-16.93-2.09-6.12-2.27-12.37-4.35-18.86-5.22-5.94-.79-12.36-.65-18.03,1.47-4.82,1.8-12.43,7.31-7.73,13.13,2.58,3.19,7.34,3.16,11.45,3.15,14.74-.05,29.97,3.46,42.3,11.74,2.25,1.51,4.5,3.19,7.15,3.76,0-.08-.19.24-.19.16l-1.19-22.06c.83-1.71.71-2.67,2.02-4.05Z"/>
    </g>
  </g>
</svg>